<svg width="100" height="77" viewBox="0 0 100 77" fill="none" xmlns="http://www.w3.org/2000/svg">
<path d="M47.9365 76.1905C33.6508 70.4762 19.5238 68.0952 5.39683 68.8889L0 14.6032C14.6032 13.8095 30.4762 16.3492 47.9365 22.8571V76.1905Z" fill="#111111"/>
<path d="M47.9365 15.2381V17.7778C35.7143 13.3333 23.6508 10.6349 11.9047 9.84127L11.4286 0C22.8571 0.634921 36.1905 6.50794 47.9365 15.2381Z" fill="#111111"/>
<path d="M52.0635 76.1905C66.3492 70.4762 80.4762 68.0952 94.6032 68.8889L100 14.4444C85.3968 13.6508 69.5238 16.1905 52.0635 22.6984V76.1905Z" fill="#111111"/>
<path d="M52.0635 15.2381V17.7778C64.4444 13.3333 76.5079 10.6349 88.0952 10L88.5714 0C77.1428 0.634921 63.8095 6.50794 52.0635 15.2381Z" fill="#111111"/>
</svg>
