<svg width="236" height="74" viewBox="0 0 236 74" fill="none" xmlns="http://www.w3.org/2000/svg">
<path d="M3 0H0V74H3V0Z" fill="#111111"/>
<path d="M26.3664 44.8406L26.3135 48.6532V48.7061C27.9373 48.6355 29.2435 48.6002 30.2319 48.6002H42.5168C42.5168 49.9064 42.4639 50.9125 42.358 51.6185C41.9343 54.3367 40.134 55.6958 36.9568 55.6958H22.8716C21.3536 55.6958 20.1622 55.2545 19.2973 54.372C18.4324 53.4895 18 52.2892 18 50.7713V19.7413L18.3707 19.3707H41.193C41.4048 20.3944 41.5107 21.5064 41.5107 22.7066C41.5107 23.9069 41.2636 25.1601 40.7694 26.4662H26.3135L26.3664 30.2788V33.9854C27.2843 33.9501 28.4845 33.9325 29.9672 33.9325H38.0688C38.3866 34.9209 38.5454 36.0506 38.5454 37.3214C38.5454 38.5923 38.3866 39.7572 38.0688 40.8163H26.3664V44.8406ZM71.7993 53.2071C70.6697 54.1249 69.187 54.7956 67.3513 55.2192C65.5157 55.6428 63.4858 55.8547 61.2618 55.8547C60.1675 55.8547 58.5878 55.837 56.5226 55.8017C54.4575 55.7664 51.8717 55.7134 48.7652 55.6428L48.3945 55.2722V19.6354L48.7652 19.2648C50.8126 19.1942 52.9395 19.1412 55.1459 19.1059C57.3522 19.0706 59.6733 19.053 62.1091 19.053C65.1097 19.053 67.6161 19.5295 69.6283 20.4827C71.6405 21.4358 73.2467 22.7419 74.4469 24.4011C75.6472 26.0603 76.4944 28.0107 76.9886 30.2523C77.4828 32.494 77.7299 34.9033 77.7299 37.4803C77.7299 41.0104 77.324 44.064 76.5121 46.641C75.7001 49.218 74.1292 51.4067 71.7993 53.2071ZM62.0561 49.2356C66.7159 49.2356 69.0458 45.3172 69.0458 37.4803C69.0458 29.6081 66.7159 25.672 62.0561 25.672H59.0643C59.0643 25.672 58.3142 25.6543 56.8139 25.619V49.2886C57.4493 49.2533 58.1995 49.2356 59.0643 49.2356H62.0561ZM111.831 19.3707V42.193C111.831 46.7116 110.596 50.1976 108.124 52.6511C105.653 55.1045 102.123 56.3312 97.534 56.3312C92.9448 56.3312 89.4059 55.1045 86.9171 52.6511C84.4284 50.1976 83.184 46.7116 83.184 42.193V19.3707L83.5547 19H86.6788C90.0325 19 91.7093 20.8004 91.7093 24.4011V42.2989C91.7093 44.77 92.1506 46.6057 93.0331 47.8059C93.9156 49.0062 95.4159 49.6063 97.534 49.6063C99.6521 49.6063 101.152 49.0062 102.035 47.8059C102.917 46.6057 103.359 44.77 103.359 42.2989V19.3707C104.453 19.1589 105.865 19.053 107.595 19.053C109.289 19.053 110.701 19.1589 111.831 19.3707ZM139.207 33.403L139.154 29.4845V19.3707C140.249 19.1589 141.67 19.053 143.417 19.053C145.164 19.053 146.568 19.1589 147.627 19.3707V55.5369C146.497 55.7487 145.085 55.8547 143.391 55.8547C141.696 55.8547 140.284 55.7487 139.154 55.5369V44.3111L139.207 40.3926L136.56 40.4456H130.417L127.77 40.3926L127.823 44.3111V55.5369C126.728 55.7487 125.316 55.8547 123.586 55.8547C121.857 55.8547 120.445 55.7487 119.35 55.5369V19.3707C120.445 19.1589 121.857 19.053 123.586 19.053C125.316 19.053 126.728 19.1589 127.823 19.3707V29.4845L127.77 33.403L130.417 33.35H136.56L139.207 33.403ZM183.793 19.3707V42.193C183.793 46.7116 182.557 50.1976 180.086 52.6511C177.615 55.1045 174.085 56.3312 169.496 56.3312C164.907 56.3312 161.368 55.1045 158.879 52.6511C156.39 50.1976 155.146 46.7116 155.146 42.193V19.3707L155.517 19H158.641C161.994 19 163.671 20.8004 163.671 24.4011V42.2989C163.671 44.77 164.112 46.6057 164.995 47.8059C165.878 49.0062 167.378 49.6063 169.496 49.6063C171.614 49.6063 173.114 49.0062 173.997 47.8059C174.879 46.6057 175.321 44.77 175.321 42.2989V19.3707C176.415 19.1589 177.827 19.053 179.557 19.053C181.251 19.053 182.663 19.1589 183.793 19.3707ZM191.683 19.2648C194.542 19.1942 196.987 19.1412 199.017 19.1059C201.047 19.0706 202.679 19.053 203.915 19.053C207.763 19.053 210.79 19.8561 212.996 21.4623C215.202 23.0685 216.306 25.4778 216.306 28.6902C216.306 30.2435 215.864 31.6909 214.982 33.0323C214.099 34.3738 212.97 35.3445 211.593 35.9447C212.475 36.2271 213.314 36.6772 214.108 37.2949C214.902 37.9127 215.582 38.6364 216.147 39.466C216.712 40.2956 217.162 41.1957 217.497 42.1665C217.832 43.1373 218 44.1346 218 45.1583C218 48.7944 216.844 51.4861 214.532 53.2335C212.219 54.9809 208.945 55.8547 204.709 55.8547C203.403 55.8547 201.673 55.837 199.52 55.8017C197.366 55.7664 194.754 55.7134 191.683 55.6428L191.312 55.2722V19.6354L191.683 19.2648ZM204.074 39.5984H199.679V49.924C200.596 49.8887 201.629 49.8887 202.776 49.924C203.924 49.9593 204.991 49.8711 205.98 49.6593C206.968 49.4475 207.798 48.9356 208.469 48.1236C209.139 47.3117 209.475 46.1821 209.475 44.7347C209.475 43.358 209.042 42.1577 208.177 41.134C207.313 40.1102 205.945 39.5984 204.074 39.5984ZM199.679 25.0365V33.5618H203.438C205.133 33.5618 206.324 33.147 207.012 32.3174C207.701 31.4879 208.045 30.473 208.045 29.2727C208.045 28.0725 207.692 27.0752 206.986 26.2809C206.28 25.4866 205.097 25.0895 203.438 25.0895H201.294C201.294 25.0895 200.755 25.0718 199.679 25.0365Z" fill="#111111"/>
</svg>
