<svg width="356" height="77" viewBox="0 0 356 77" fill="none" xmlns="http://www.w3.org/2000/svg">
<g clip-path="url(#clip0_39_74)">
<path d="M47.9365 76.1905C33.6508 70.4762 19.5238 68.0952 5.39683 68.8889L0 14.6032C14.6032 13.8095 30.4762 16.3492 47.9365 22.8571V76.1905Z" fill="#111111"/>
<path d="M47.9365 15.2381V17.7778C35.7143 13.3333 23.6508 10.6349 11.9047 9.84127L11.4286 0C22.8571 0.634921 36.1905 6.50794 47.9365 15.2381Z" fill="#111111"/>
<path d="M52.0635 76.1905C66.3492 70.4762 80.4762 68.0952 94.6032 68.8889L100 14.4444C85.3968 13.6508 69.5238 16.1905 52.0635 22.6984V76.1905Z" fill="#111111"/>
<path d="M52.0635 15.2381V17.7778C64.4444 13.3333 76.5079 10.6349 88.0952 10L88.5714 0C77.1428 0.634921 63.8095 6.50794 52.0635 15.2381Z" fill="#111111"/>
<path d="M123 1H120V75H123V1Z" fill="#111111"/>
<path d="M146.366 45.8406L146.313 49.6532V49.7061C147.937 49.6355 149.243 49.6002 150.232 49.6002H162.517C162.517 50.9064 162.464 51.9125 162.358 52.6185C161.934 55.3367 160.134 56.6958 156.957 56.6958H142.872C141.354 56.6958 140.162 56.2545 139.297 55.372C138.432 54.4895 138 53.2892 138 51.7713V20.7413L138.371 20.3707H161.193C161.405 21.3944 161.511 22.5064 161.511 23.7066C161.511 24.9069 161.264 26.1601 160.769 27.4662H146.313L146.366 31.2788V34.9854C147.284 34.9501 148.485 34.9325 149.967 34.9325H158.069C158.387 35.9209 158.545 37.0506 158.545 38.3214C158.545 39.5923 158.387 40.7572 158.069 41.8163H146.366V45.8406V45.8406ZM191.799 54.207C190.67 55.1249 189.187 55.7956 187.351 56.2192C185.516 56.6428 183.486 56.8547 181.262 56.8547C180.168 56.8547 178.588 56.837 176.523 56.8017C174.458 56.7664 171.872 56.7134 168.765 56.6428L168.394 56.2722V20.6354L168.765 20.2648C170.813 20.1942 172.94 20.1412 175.146 20.1059C177.352 20.0706 179.673 20.053 182.109 20.053C185.11 20.053 187.616 20.5295 189.628 21.4827C191.64 22.4358 193.247 23.7419 194.447 25.4011C195.647 27.0603 196.494 29.0107 196.989 31.2523C197.483 33.494 197.73 35.9033 197.73 38.4803C197.73 42.0104 197.324 45.064 196.512 47.641C195.7 50.218 194.129 52.4067 191.799 54.207V54.207ZM182.056 50.2356C186.716 50.2356 189.046 46.3172 189.046 38.4803C189.046 30.6081 186.716 26.672 182.056 26.672H179.064C179.064 26.672 178.314 26.6543 176.814 26.619V50.2886C177.449 50.2533 178.199 50.2356 179.064 50.2356H182.056ZM231.831 20.3707V43.193C231.831 47.7116 230.596 51.1976 228.124 53.651C225.653 56.1045 222.123 57.3312 217.534 57.3312C212.945 57.3312 209.406 56.1045 206.917 53.651C204.428 51.1976 203.184 47.7116 203.184 43.193V20.3707L203.555 20H206.679C210.032 20 211.709 21.8004 211.709 25.4011V43.2989C211.709 45.77 212.151 47.6057 213.033 48.8059C213.916 50.0062 215.416 50.6063 217.534 50.6063C219.652 50.6063 221.152 50.0062 222.035 48.8059C222.917 47.6057 223.359 45.77 223.359 43.2989V20.3707C224.453 20.1589 225.865 20.053 227.595 20.053C229.289 20.053 230.701 20.1589 231.831 20.3707V20.3707ZM259.207 34.403L259.154 30.4845V20.3707C260.249 20.1589 261.67 20.053 263.417 20.053C265.164 20.053 266.568 20.1589 267.627 20.3707V56.5369C266.497 56.7487 265.085 56.8547 263.391 56.8547C261.696 56.8547 260.284 56.7487 259.154 56.5369V45.3111L259.207 41.3926L256.56 41.4456H250.417L247.77 41.3926L247.823 45.3111V56.5369C246.728 56.7487 245.316 56.8547 243.586 56.8547C241.857 56.8547 240.445 56.7487 239.35 56.5369V20.3707C240.445 20.1589 241.857 20.053 243.586 20.053C245.316 20.053 246.728 20.1589 247.823 20.3707V30.4845L247.77 34.403L250.417 34.35H256.56L259.207 34.403ZM303.793 20.3707V43.193C303.793 47.7116 302.557 51.1976 300.086 53.651C297.615 56.1045 294.085 57.3312 289.496 57.3312C284.907 57.3312 281.368 56.1045 278.879 53.651C276.39 51.1976 275.146 47.7116 275.146 43.193V20.3707L275.517 20H278.641C281.994 20 283.671 21.8004 283.671 25.4011V43.2989C283.671 45.77 284.112 47.6057 284.995 48.8059C285.878 50.0062 287.378 50.6063 289.496 50.6063C291.614 50.6063 293.114 50.0062 293.997 48.8059C294.879 47.6057 295.321 45.77 295.321 43.2989V20.3707C296.415 20.1589 297.827 20.053 299.557 20.053C301.251 20.053 302.663 20.1589 303.793 20.3707V20.3707ZM311.683 20.2648C314.542 20.1942 316.987 20.1412 319.017 20.1059C321.047 20.0706 322.679 20.053 323.915 20.053C327.763 20.053 330.79 20.8561 332.996 22.4623C335.202 24.0685 336.306 26.4778 336.306 29.6902C336.306 31.2435 335.864 32.6909 334.982 34.0323C334.099 35.3738 332.97 36.3445 331.593 36.9447C332.475 37.2271 333.314 37.6772 334.108 38.2949C334.902 38.9127 335.582 39.6364 336.147 40.466C336.711 41.2956 337.162 42.1957 337.497 43.1665C337.832 44.1373 338 45.1346 338 46.1583C338 49.7944 336.844 52.4861 334.532 54.2335C332.219 55.9809 328.945 56.8547 324.709 56.8547C323.403 56.8547 321.673 56.837 319.52 56.8017C317.366 56.7664 314.754 56.7134 311.683 56.6428L311.312 56.2722V20.6354L311.683 20.2648ZM324.074 40.5984H319.679V50.924C320.596 50.8887 321.629 50.8887 322.776 50.924C323.924 50.9593 324.991 50.8711 325.98 50.6593C326.968 50.4475 327.798 49.9356 328.469 49.1236C329.139 48.3117 329.475 47.1821 329.475 45.7347C329.475 44.358 329.042 43.1577 328.177 42.134C327.313 41.1102 325.945 40.5984 324.074 40.5984ZM319.679 26.0365V34.5618H323.438C325.133 34.5618 326.324 34.147 327.012 33.3174C327.701 32.4879 328.045 31.473 328.045 30.2727C328.045 29.0725 327.692 28.0752 326.986 27.2809C326.28 26.4866 325.097 26.0895 323.438 26.0895H321.294C321.294 26.0895 320.755 26.0718 319.679 26.0365V26.0365Z" fill="#111111"/>
</g>
<defs>
<clipPath id="clip0_39_74">
<rect width="356" height="76.1905" fill="white"/>
</clipPath>
</defs>
</svg>
